<svg width="249" height="94" viewBox="0 0 249 94" fill="none" xmlns="http://www.w3.org/2000/svg">
<g clip-path="url(#clip0)">
<path d="M83.6464 53.0686C77.8286 53.0686 73.5623 48.5494 73.5623 42.8681C73.5623 37.1867 77.8286 32.5384 83.7757 32.5384C87.3956 32.5384 89.7227 33.8296 91.5327 35.6373L89.3348 38.2197C87.7834 36.7994 85.9735 35.7664 83.7757 35.7664C80.0264 35.7664 77.1822 38.8653 77.1822 42.8681C77.1822 46.7417 79.8971 49.9697 83.7757 49.9697C86.232 49.9697 87.7834 48.9367 89.4641 47.3873L91.6619 49.7115C89.7227 51.6483 87.3956 53.0686 83.6464 53.0686Z" fill="white"/>
<path d="M110.02 53.0686C103.944 53.0686 99.6775 48.4203 99.6775 42.8681C99.6775 37.1867 103.944 32.5384 110.149 32.5384C116.226 32.5384 120.492 37.1867 120.492 42.7389C120.492 48.4203 116.096 53.0686 110.02 53.0686ZM110.02 35.6373C106.012 35.6373 103.297 38.7362 103.297 42.7389C103.297 46.6126 106.142 49.8406 110.02 49.8406C113.899 49.8406 116.743 46.7417 116.743 42.7389C116.743 38.8653 114.028 35.6373 110.02 35.6373Z" fill="white"/>
<path d="M140.143 47.7747L133.808 38.4779V52.6812H130.318V32.7966H134.067L140.143 42.2225L146.219 32.7966H149.969V52.6812H146.478V38.4779L140.143 47.7747Z" fill="white"/>
<path d="M168.198 46.3543H164.19V52.8104H160.699V32.7966H168.586C173.24 32.7966 176.213 35.379 176.213 39.5109C176.213 44.0301 172.593 46.3543 168.198 46.3543ZM168.327 36.0247H164.319V43.1263H168.327C170.913 43.1263 172.593 41.706 172.593 39.5109C172.593 37.1867 170.913 36.0247 168.327 36.0247Z" fill="white"/>
<path d="M202.587 52.6813H198.838L196.769 47.9038H187.332L185.263 52.6813H181.643L190.435 32.6675H193.667L202.587 52.6813ZM192.115 36.7994L188.754 44.8049H195.606L192.115 36.7994Z" fill="white"/>
<path d="M219.006 41.1895C223.273 42.2225 225.47 43.7719 225.47 47C225.47 50.7445 222.497 52.9395 218.36 52.9395C215.257 52.9395 212.413 51.9066 210.086 49.7115L212.154 47.2582C214.093 48.9368 215.903 49.8406 218.489 49.8406C220.687 49.8406 221.98 48.8077 221.98 47.2582C221.98 45.8379 221.204 45.0631 217.455 44.1593C213.188 43.1263 210.861 41.8351 210.861 38.2197C210.861 34.7335 213.706 32.4093 217.713 32.4093C220.558 32.4093 222.885 33.3131 224.953 34.8626L223.014 37.445C221.204 36.1538 219.394 35.3791 217.584 35.3791C215.516 35.3791 214.352 36.412 214.352 37.7033C214.223 39.6401 215.128 40.2857 219.006 41.1895Z" fill="white"/>
<path d="M242.665 41.1895C246.931 42.2225 249.129 43.7719 249.129 47C249.129 50.7445 246.156 52.9395 242.019 52.9395C238.916 52.9395 236.071 51.9066 233.744 49.7115L235.813 47.2582C237.752 48.9368 239.562 49.8406 242.148 49.8406C244.346 49.8406 245.638 48.8077 245.638 47.2582C245.638 45.8379 244.863 45.0631 241.114 44.1593C236.847 43.1263 234.52 41.8351 234.52 38.2197C234.52 34.7335 237.364 32.4093 241.372 32.4093C244.216 32.4093 246.543 33.3131 248.612 34.8626L246.673 37.445C244.863 36.1538 243.053 35.3791 241.243 35.3791C239.174 35.3791 238.011 36.412 238.011 37.7033C237.881 39.6401 238.786 40.2857 242.665 41.1895Z" fill="white"/>
<path d="M75.3723 62.8818H76.9237V70.4999H81.7072V71.9202H75.3723V62.8818Z" fill="white"/>
<path d="M94.6354 71.9202H92.9548L92.0498 69.7252H87.7834L86.8784 71.9202H85.1978L89.2055 62.8818H90.6277L94.6354 71.9202ZM89.852 64.6895L88.3006 68.3049H91.4034L89.852 64.6895Z" fill="white"/>
<path d="M103.039 62.8818H104.332L106.53 69.5961L108.727 62.8818H110.408L107.305 71.9202H105.883L103.685 65.4642L101.488 71.9202H100.065L96.9626 62.8818H98.6433L100.841 69.5961L103.039 62.8818Z" fill="white"/>
<path d="M125.405 72.0494C122.561 72.0494 120.751 69.9835 120.751 67.401C120.751 64.8186 122.69 62.7527 125.405 62.7527C126.956 62.7527 127.991 63.1401 128.896 63.9148L127.861 65.0769C127.215 64.4313 126.439 64.173 125.276 64.173C123.595 64.173 122.302 65.5933 122.302 67.401C122.302 69.2087 123.466 70.6291 125.405 70.6291C126.31 70.6291 127.086 70.3708 127.603 69.9835V68.3049H125.276V66.8846H129.154V70.6291C128.249 71.4038 126.956 72.0494 125.405 72.0494Z" fill="white"/>
<path d="M139.626 71.9202L137.428 68.8213H135.489V71.9202H133.938V62.8818H137.946C140.014 62.8818 141.307 63.9147 141.307 65.7224C141.307 67.2719 140.402 68.1757 139.109 68.434L141.565 71.7911H139.626V71.9202ZM137.687 64.3021H135.36V67.2719H137.687C138.851 67.2719 139.497 66.6263 139.497 65.7224C139.626 64.8186 138.851 64.3021 137.687 64.3021Z" fill="white"/>
<path d="M150.098 72.0494C147.383 72.0494 145.444 69.9835 145.444 67.401C145.444 64.8186 147.383 62.7527 150.227 62.7527C152.942 62.7527 154.882 64.8186 154.882 67.401C154.752 69.9835 152.813 72.0494 150.098 72.0494ZM150.098 64.173C148.288 64.173 146.995 65.5933 146.995 67.401C146.995 69.2087 148.288 70.6291 150.098 70.6291C151.908 70.6291 153.201 69.2087 153.201 67.401C153.201 65.5933 151.779 64.173 150.098 64.173Z" fill="white"/>
<path d="M166.905 68.0466C166.905 70.7581 165.354 72.0493 163.026 72.0493C160.699 72.0493 159.148 70.7581 159.148 68.0466V62.8818H160.699V68.0466C160.699 69.7252 161.604 70.629 163.026 70.629C164.449 70.629 165.354 69.7252 165.354 68.1757V63.0109H166.905V68.0466Z" fill="white"/>
<path d="M175.05 69.0796H173.24V71.9202H171.688V62.8818H175.308C177.377 62.8818 178.799 64.0439 178.799 65.8516C178.67 67.9175 176.989 69.0796 175.05 69.0796ZM175.05 64.3021H173.24V67.5301H175.05C176.213 67.5301 176.989 66.8845 176.989 65.8516C177.118 64.9477 176.343 64.3021 175.05 64.3021Z" fill="white"/>
<path d="M30.3232 54.245C36.4007 54.245 41.3275 49.3244 41.3275 43.2545C41.3275 37.1847 36.4007 32.264 30.3232 32.264C24.2457 32.264 19.3188 37.1847 19.3188 43.2545C19.3188 49.3244 24.2457 54.245 30.3232 54.245Z" stroke="white" stroke-width="1.5" stroke-miterlimit="10" stroke-linejoin="round"/>
<path d="M33.9915 53.6726L56.0001 43.2545L33.9915 32.722" stroke="white" stroke-width="1.5" stroke-miterlimit="10" stroke-linejoin="round"/>
<path d="M26.6552 53.6726L4.64648 43.2545L26.6552 32.722" stroke="white" stroke-width="1.5" stroke-miterlimit="10" stroke-linejoin="round"/>
<path d="M42.4739 36.7289L45.4542 28.1426L32.7305 32.3785" stroke="white" stroke-width="1.5" stroke-miterlimit="10" stroke-linejoin="round"/>
<path d="M26.5406 53.6726L15.1924 58.3665L18.2874 49.7802" stroke="white" stroke-width="1.5" stroke-miterlimit="10" stroke-linejoin="round"/>
<path d="M33.0742 54.016L45.4541 58.3664L42.4738 49.8946" stroke="white" stroke-width="1.5" stroke-miterlimit="10" stroke-linejoin="round"/>
<path d="M18.2872 36.6144L15.3069 28.1426L28.2599 32.493" stroke="white" stroke-width="1.5" stroke-miterlimit="10" stroke-linejoin="round"/>
<path d="M30.3232 32.1495V22.8763" stroke="white" stroke-width="1.5" stroke-miterlimit="10" stroke-linejoin="round"/>
<path d="M34.9083 18.6404L30.3232 23.1053L25.738 18.6404" stroke="white" stroke-width="1.5" stroke-miterlimit="10" stroke-linejoin="round"/>
<path d="M30.3232 54.2451V63.6328" stroke="white" stroke-width="1.5" stroke-miterlimit="10" stroke-linejoin="round"/>
<path d="M34.9083 67.8687L30.3232 63.2893L25.738 67.8687" stroke="white" stroke-width="1.5" stroke-miterlimit="10" stroke-linejoin="round"/>
<path d="M21.0384 35.3551L19.8921 39.82" stroke="white" stroke-width="1.5" stroke-miterlimit="10" stroke-linejoin="round"/>
<path d="M38.2326 30.5468L30.3232 2.15466L22.4138 30.5468" stroke="white" stroke-width="1.5" stroke-miterlimit="10" stroke-linejoin="round"/>
<path d="M40.8691 39.82L39.6082 35.4696" stroke="white" stroke-width="1.5" stroke-miterlimit="10" stroke-linejoin="round"/>
<path d="M21.0384 51.0394L19.8921 46.8035" stroke="white" stroke-width="1.5" stroke-miterlimit="10" stroke-linejoin="round"/>
<path d="M38.3473 55.9623L30.3233 84.3544L22.2993 55.5043" stroke="white" stroke-width="1.5" stroke-miterlimit="10" stroke-linejoin="round"/>
<path d="M40.8691 46.8035L39.6082 51.0394" stroke="white" stroke-width="1.5" stroke-miterlimit="10" stroke-linejoin="round"/>
<path d="M5.21973 43.4835H18.9751" stroke="white" stroke-width="1.5" stroke-miterlimit="10" stroke-linejoin="round"/>
<path d="M41.7864 43.4835H55.5418" stroke="white" stroke-width="1.5" stroke-miterlimit="10" stroke-linejoin="round"/>
<path d="M34.5645 47.0326C33.5328 48.2919 31.928 48.9788 30.2086 48.9788C26.999 48.9788 24.3625 46.3457 24.3625 43.1401C24.3625 39.9345 26.999 37.3014 30.2086 37.3014C31.8134 37.3014 33.1889 37.8738 34.2206 38.9042" stroke="white" stroke-width="1.5" stroke-miterlimit="10"/>
<path d="M30.2085 22.3038C30.0939 22.3038 29.8646 22.1893 29.75 22.0748L26.4258 18.5258C26.3112 18.4113 26.1965 18.1823 26.3112 17.9534L29.75 4.90215C29.8646 4.67318 30.0939 4.44421 30.3232 4.44421C30.5524 4.44421 30.7817 4.67318 30.8963 4.90215L34.3351 17.9534C34.3351 18.1823 34.3351 18.4113 34.2205 18.5258L30.667 22.0748C30.5524 22.1893 30.4378 22.3038 30.2085 22.3038Z" fill="white"/>
<path d="M30.3232 5.13117L33.7621 18.1824L30.2086 21.7314L26.8844 18.1824L30.3232 5.13117ZM30.3232 3.98633C29.7501 3.98633 29.2916 4.32978 29.1769 4.78772L25.7381 17.8389C25.6235 18.1824 25.7381 18.6403 25.9673 18.8693L29.2916 22.4183C29.5208 22.6473 29.7501 22.7618 30.094 22.7618C30.4379 22.7618 30.6671 22.6473 30.8964 22.4183L34.4498 18.8693C34.6791 18.5258 34.7937 18.1824 34.7937 17.7244L31.3549 4.67323C31.3549 4.32978 30.8964 3.98633 30.3232 3.98633Z" fill="white"/>
</g>
<defs>
<clipPath id="clip0">
<rect width="249" height="94" fill="white"/>
</clipPath>
</defs>
</svg>
